<?xml version="1.0" encoding="utf-8"?>
<!-- Generator: Adobe Illustrator 26.3.1, SVG Export Plug-In . SVG Version: 6.00 Build 0)  -->
<svg version="1.1" id="Ebene_1" xmlns="http://www.w3.org/2000/svg" xmlns:xlink="http://www.w3.org/1999/xlink" x="0px" y="0px"
	 viewBox="0 0 1920 1080" style="enable-background:new 0 0 1920 1080;" xml:space="preserve">
<style type="text/css">
	.st0{fill:#FDFDFD;}
	.st1{fill:#0081C2;}
	.st2{fill:#6EBDEA;}
	.st3{fill:#9AD6F9;}
	.st4{fill:#0078B8;}
	.st5{fill:#28A4E0;}
	.st6{fill:#0082C2;}
	.st7{fill:#FEFEFE;}
</style>
<g>
	<g>
		<path class="st0" d="M937.7,635.9c-190.7,0-381.4,0-572.1,0.1c-2.2,0-2.6-0.5-2.6-2.6c0.1-113.2,0.1-226.5,0-339.7
			c0-2.2,0.5-2.6,2.6-2.6c381.6,0.1,763.1,0.1,1144.7,0c2.2,0,2.6,0.5,2.6,2.6c-0.1,113.2-0.1,226.5,0,339.7c0,2.2-0.5,2.6-2.6,2.6
			C1319.5,635.9,1128.6,635.9,937.7,635.9z"/>
		<path class="st1" d="M522.6,463.7c0-0.2,0.1-0.4,0.2-0.5c1.6-2.4,4.3-3.2,6.6-4.5c17.4-10,34.9-19.9,52.3-29.9
			c1-0.6,2-1.1,3.1-1.4c0.3,0,0.6,0,0.8,0.1c6.3,4.3,13.1,7.8,19.8,11.6c12.7,7.3,25.6,14.5,38.3,21.8c1,0.6,2.1,1,2.4,2.3
			c-0.1,1.4-1.3,1.8-2.2,2.4c-18.4,10.5-36.9,21-55.3,31.6c-1.3,0.8-2.7,1.5-4.2,1.9c-0.3,0-0.6,0-0.8-0.1
			c-5.8-4.2-12.3-7.3-18.5-10.9c-12.7-7.4-25.6-14.6-38.3-21.9C525.4,465.3,523.7,465,522.6,463.7z"/>
		<path d="M724.3,463.1c0-13.7,0-27.3,0-41c0-1.5,0-2.5,2-2.4c15,0.3,30.1-0.5,45.1,0.5c13.3,0.9,25.9,4.6,37.8,10.7
			c1.1,0.6,1.8,1.3,2.4,2.3c11.8,20,11.8,39.9,0.1,60c-0.8,1.3-1.9,2.1-3.2,2.8c-14.3,7.2-29.4,10.7-45.3,10.8
			c-12.1,0.1-24.1-0.1-36.2,0.1c-2.4,0-2.8-0.8-2.8-2.9C724.3,490.3,724.3,476.7,724.3,463.1z"/>
		<path d="M938,480.4c0.7,4,2.1,7.5,3.7,11c0.6,1.2,1.6,1.5,2.7,1.7c19.7,3.6,39.2,2.6,58.4-3.4c0.4-0.1,0.9-0.2,1.7-0.4
			c-1.6,5.3-4,9.8-7,14.1c-0.6,0.9-1.7,0.9-2.6,1.1c-20,5.2-40.1,5.1-60.2,0.1c-1.7-0.4-2.9-1.2-3.8-2.7c-12-20.2-12-40.4,0-60.7
			c0.9-1.5,2-2.3,3.7-2.7c20.2-5.2,40.3-5.2,60.4,0.1c1.5,0.4,2.5,1.2,3.3,2.4c7.3,11.4,10,23.8,8.7,37.2c-0.2,2-0.9,2.5-2.8,2.4
			c-21.1-0.1-42.1,0-63.2,0C940.1,480.4,939.1,480.4,938,480.4z"/>
		<path d="M843.5,480.5c0.7,3.9,2.1,7.4,3.7,10.8c0.6,1.2,1.5,1.5,2.7,1.7c20.2,3.8,40.1,2.4,60.1-3.8c-1.5,5.2-4,9.8-7,14.1
			c-0.6,0.8-1.7,0.8-2.6,1.1c-20,5.1-40.1,5.1-60.2,0c-1.6-0.4-2.7-1.1-3.6-2.5c-12.1-20.3-12.2-40.6-0.1-60.9
			c0.8-1.4,1.8-2.2,3.5-2.6c20.2-5.2,40.5-5.2,60.7,0.1c1.2,0.3,2.1,0.7,2.8,1.7c7.6,11.6,10.6,24.2,9.1,37.9
			c-0.2,1.9-0.8,2.4-2.8,2.4c-21.5-0.1-43.1-0.1-64.6-0.1C844.8,480.4,844.2,480.5,843.5,480.5z"/>
		<path d="M1018.1,471.4c0-10.9,0-21.8,0-32.7c0-1.9,0.3-2.6,2.4-2.6c12.6,0.1,25.3,0,37.9,0.1c10.1,0.1,20,1.8,29.7,4.6
			c1.3,0.4,2.2,1.1,3,2.1c8.9,11.2,9,27.8,0,39c-0.9,1.1-1.8,1.7-3.2,2.1c-10.8,3.1-21.9,4.6-33.1,4.5c-6.5,0-13,0.1-19.5,0
			c-1.8,0-2.3,0.5-2.2,2.2c0.1,4.6,0,9.2,0.1,13.8c0,1.8-0.5,2.3-2.3,2.2c-3.4-0.1-6.9-0.2-10.3,0c-1.9,0.1-2.4-0.6-2.3-2.4
			C1018.2,493.3,1018.1,482.4,1018.1,471.4z"/>
		<path class="st2" d="M584.9,365.1c12.1,6.9,24.3,13.7,36.4,20.6c6.2,3.5,12.4,7.1,18.7,10.6c1.3,0.7,2.4,1.5,3.2,2.7
			c10.3,15.4,20.6,30.8,30.8,46.2c0.3,0.4,0.4,0.9,0.5,1.3c-1.1,0.8-2,0.1-2.9-0.4c-20.6-10.3-41.1-20.5-61.7-30.8
			c-0.3-0.2-0.7-0.4-1-0.6c-0.2-0.2-0.4-0.4-0.6-0.7c-7.8-15.3-15.4-30.8-23.1-46.1C584.8,367.1,584.1,366.2,584.9,365.1z"/>
		<path class="st2" d="M584.9,561.5c-6.6-3-12.6-7-18.9-10.5c-12.4-7-24.7-14.1-37.1-21.2c-1-0.6-1.9-1.2-2.6-2.2
			c-10.3-15.5-20.7-31-31-46.5c-0.3-0.4-0.4-0.9-0.6-1.3c1.6-0.7,2.8,0.4,4,1c18.8,9.3,37.6,18.8,56.4,28.1c1.9,0.9,3.8,1.8,5.7,2.8
			c0.2,0.2,0.4,0.4,0.5,0.7c7.4,15.2,15.1,30.2,22.6,45.4C584.4,558.9,585.5,560,584.9,561.5z"/>
		<path class="st3" d="M584.3,498.7c19.7-11.3,39.5-22.5,59.2-33.8c0.8-0.5,1.6-1,2.4-1.5c0.2-0.6,0.4-1.1,1.1-0.6
			c1.7,2.6,4.7,3.3,7.2,4.8c6.3,3.8,12.9,7.4,19.3,11.1c1,0.6,2.4,1,0.6,2.3c-20.5,10.5-41.2,20.6-61.8,30.9c-1,0.5-2,1.1-3.2,1
			C600.7,508.4,592.4,503.7,584.3,498.7z"/>
		<path class="st3" d="M585,427.8c-20.7,11.8-41.5,23.6-62.2,35.4c-8.6-5-17.3-9.9-25.9-14.9c-0.8-0.5-2.6-0.4-1.6-2.3
			c0.9-0.9,2-1.5,3.1-2c19.4-9.7,38.8-19.4,58.3-29.1c1.1-0.5,2.2-1.3,3.5-1.3c5.8,2.4,11,6,16.5,9
			C579.4,424.2,582.5,425.4,585,427.8z"/>
		<path class="st4" d="M560.8,512c-1.4,0.1-2.6-0.7-3.7-1.3c-19.9-9.9-39.8-19.9-59.7-29.8c-0.8-0.4-1.7-0.8-2.6-1.1
			c0.2-0.8,0.9-0.9,1.5-1.2c8.8-5,17.6-9.9,26.4-14.9c4.7,1,8.3,4.1,12.4,6.4c10.2,5.6,20.2,11.5,30.3,17.3
			c5.7,3.3,11.4,6.5,17.2,9.7c0.7,0.4,1.2,0.9,1.3,1.8c0.3,1.2-0.8,1.4-1.5,1.8c-6.2,3.7-12.6,7.2-18.8,10.8
			C562.6,511.8,561.8,512.4,560.8,512z"/>
		<path class="st4" d="M647,462.8c-0.4,0.2-0.7,0.4-1.1,0.6c-3.3-3-7.4-4.6-11.2-6.8c-13.4-7.8-26.8-15.3-40.3-23
			c-2-1.1-4-2.2-6-3.3c-1.1-0.6-2.5-1-3-2.5c0.3-1.3,1.4-1.8,2.4-2.3c6.1-3.4,12.1-7,18.2-10.3c0.9-0.5,1.7-1.4,2.9-0.9
			c1.2,0.5,2.5,1,3.7,1.6c19.7,9.8,39.4,19.7,59.1,29.5c0.9,0.5,1.9,0.8,2.9,1.2c-0.3,1.2-1.5,1.3-2.3,1.8
			C663.8,453.2,655.4,458,647,462.8z"/>
		<path d="M1157.1,416.5c11.5,0,22.3,2.8,32.4,8.3c1.3,0.7,2.4,1.5,3.3,2.7c16.7,20.8,16.8,50.2,0.2,71c-1,1.2-2,2.2-3.4,3
			c-21.7,11.3-43.4,11.3-65.1,0.1c-1.5-0.8-2.6-1.8-3.7-3.1c-16.5-21-16.5-49.9,0.1-70.8c1-1.2,2.1-2.2,3.5-2.9
			C1134.6,419.3,1145.4,416.4,1157.1,416.5z"/>
		<path d="M1306.6,490.8c9.2,6.1,18.9,9.9,29.5,11.2c12.4,1.5,24.4,0,35.9-5.1c3.5-1.6,4.1-5.4,4.6-8.7c1.1-6.3,0.5-7-5.8-8.3
			c-20.2-4.2-40.4-8.5-60.6-12.8c-1.7-0.4-2.6-1.1-3.1-2.8c-1.4-5.4-1.2-10.6,0.8-15.7c1.6-4.1,4.1-6.9,8.5-8.6
			c19.3-7.4,38.4-7.3,57.6,0.3c3.6,1.4,6.2,3.5,7.4,7.3c0.4,1.3,1.1,2.6,1.9,4.5c-4.8-3-9.2-5.4-13.9-7.2
			c-16.5-6.2-33.1-6.1-49.6,0.1c-3.1,1.1-5,3-5.9,6.1c-0.4,1.5-0.9,2.9-1.1,4.4c-0.6,5.9-0.4,6.1,5.3,7.3c20.5,4.4,40.9,8.7,61.4,13
			c1.5,0.3,2.3,0.9,2.7,2.4c2.2,7.7,1,14.7-3.5,21.3c-0.7,1-1.6,1.6-2.7,2.1c-21.3,9.2-42.5,9.2-63.6-0.4c-1.2-0.5-2-1.3-2.6-2.4
			C1308.8,496.2,1307.5,493.8,1306.6,490.8z"/>
		<path d="M1217.6,471.5c0-10.9,0-21.8,0-32.7c0-1.8,0.2-2.7,2.4-2.6c12.9,0.1,25.9-0.1,38.8,0.2c10.3,0.2,20.2,2.6,29.9,6.3
			c1,0.4,1.8,0.9,2.4,1.9c7.2,10.1,7.2,25.9,0,35.9c-0.7,1-1.7,1.5-2.7,1.9c-10.7,4.2-21.8,6.3-33.3,6.3c-9.4,0-18.8,0.1-28.2-0.1
			c-2,0-2.6,0.6-2.5,2.6c0.1,4.2-0.2,8.4,0.1,12.6c0.2,2.7-0.8,3.4-3.2,3c-0.2,0-0.4,0-0.6,0c-2.3,0.4-3.1-0.4-3-2.9
			C1217.7,493.1,1217.6,482.3,1217.6,471.5z"/>
		<path class="st4" d="M560.1,413.8c-20.9,10.5-41.9,20.9-62.8,31.4c-0.7,0.3-1.4,0.5-2.1,0.8c0.3-0.6,0.5-1.2,0.9-1.7
			c10.1-15.1,20.2-30.3,30.3-45.4c0.3-0.4,0.6-0.7,0.9-1.1c1-0.3,2.1-0.2,3.1,0c10.4,2.1,20.8,4.1,31.1,6.2c0.8,0.2,1.7,0.4,2.4,0.9
			c0.4,0.3,0.7,0.8,0.5,1.2C563.4,408.9,562.7,411.9,560.1,413.8z"/>
		<path class="st4" d="M609.1,512.6c20.7-10.3,41.4-20.6,62.1-30.9c0.9-0.4,1.7-1.7,2.9-0.7c-10,15-20,30-30.1,45
			c-0.6,0.9-1.2,1.7-1.8,2.6c-1.3,0.6-2.6,0.2-3.9,0c-9.7-1.9-19.4-3.9-29.2-5.8c-1.4-0.3-2.9-0.4-3.8-1.7
			C605.2,517.7,607,515.1,609.1,512.6z"/>
		<path class="st5" d="M584.9,365.1c0.4,1.1,0.8,2.1,1.3,3.2c7.1,14.2,14.3,28.5,21.4,42.7c0.5,1,0.9,2.1,1.4,3.1
			c-1.3,0.3-2.6,0.3-4,0c-12.4-2.5-24.8-5-37.3-7.5c-0.9-0.2-1.9-0.4-2.7-0.9c-1.1-1-0.5-2.1,0-3.1c5.8-11.7,11.7-23.4,17.6-35.2
			c0.4-0.9,1.2-1.5,1.7-2.3C584.5,364.8,584.7,364.8,584.9,365.1z"/>
		<path class="st5" d="M584.9,561.5c-7.6-15.2-15.2-30.3-22.8-45.5c-0.5-1.1-1.3-2.1-1.4-3.4c0.9-0.6,1.8-0.5,2.8-0.3
			c13.2,2.7,26.5,5.2,39.7,8c0.5,0.1,0.9,0.3,1.3,0.5c1.4,1.5,0.1,2.7-0.5,3.8c-5.3,10.7-10.6,21.3-16,31.9c-0.7,1.4-1.5,2.9-2,4.4
			C585.9,561.4,585.4,561.4,584.9,561.5z"/>
		<path class="st6" d="M584.3,365.1c-0.5,2.1-1.7,3.8-2.6,5.7c-5.2,10.5-10.5,21-15.7,31.5c-0.5,0.9-0.8,1.9-1.2,2.9
			c0,0-0.2,0.2-0.2,0.2s-0.3-0.1-0.3-0.1c-12-2.4-24-4.7-36-7.1c-0.4-0.1-0.7-0.3-1-0.5c4.5-3.3,9.6-5.8,14.5-8.6
			c13.2-7.6,26.5-15.1,39.7-22.7C582.4,366,583.4,365.6,584.3,365.1z"/>
		<path class="st6" d="M586.1,560.8c-1.2-1.1,0-1.9,0.4-2.7c6.1-12.3,12.3-24.7,18.4-37c-0.1-0.5,0.1-0.6,0.5-0.7
			c2.4,2.2,5.5,1.8,8.3,2.4c9.4,2.1,18.9,3.9,28.4,5.8c-6.3,4.3-13.2,7.8-19.9,11.6C610.3,547.2,598.2,554,586.1,560.8z"/>
		<path class="st7" d="M605.5,520.4c-0.2,0.2-0.3,0.5-0.5,0.7c-8.4-1.6-16.8-3.2-25.2-4.8c-6.3-1.2-12.7-2.5-19-3.8
			c0-0.2,0-0.3,0-0.5c7.7-4.4,15.3-8.9,23-13.3c0.2,0,0.4,0,0.5,0c3.4,0.6,6,2.9,8.8,4.5c5.4,3.1,11,5.8,16,9.4
			C607.9,515.2,606.7,517.8,605.5,520.4z"/>
		<path class="st7" d="M564.3,405.3c0.2,0,0.3,0,0.4-0.1c14.7,3,29.5,5.9,44.2,8.9c0,0,0,0.2,0,0.2c-7.8,4.5-15.6,9-23.4,13.5
			c0,0-0.2,0-0.2,0s-0.2,0-0.2,0c-5.9-2.4-11.1-6.2-16.7-9.1c-2.8-1.5-5.4-3.2-8.1-4.8C561.5,411,562.9,408.2,564.3,405.3z"/>
		<path class="st7" d="M739,463.2c0-9.4,0-18.7,0-28.1c0-1.1-0.4-2.3,1.6-2.3c11.7,0.3,23.3-0.7,35,1c7.7,1.1,15.1,3.4,22.2,6.5
			c1.3,0.6,2.2,1.3,2.8,2.6c6.6,13.5,6.6,27,0,40.5c-0.6,1.3-1.5,2.1-2.8,2.6c-10.7,4.7-21.9,7.2-33.6,7.4
			c-7.6,0.1-15.1-0.1-22.7,0.1c-2.1,0-2.5-0.6-2.5-2.6C739.1,481.7,739,472.5,739,463.2z"/>
		<path class="st7" d="M964.8,467.3c-8.5,0-17,0-25.5,0c-1.8,0-2.3-0.3-2-2.2c0.8-4.5,2.1-8.9,4-13.1c0.6-1.3,1.4-2.1,2.9-2.4
			c13.7-2.7,27.3-2.7,41,0c1.6,0.3,2.4,1.1,3.1,2.5c1.9,4,3.1,8.2,3.9,12.5c0.4,1.8,0.1,2.7-2.1,2.6
			C981.7,467.2,973.2,467.3,964.8,467.3z"/>
		<path class="st7" d="M870.5,467.3c-8.5,0-17-0.1-25.5,0c-1.9,0-2.3-0.5-2-2.3c0.8-4.6,2.1-9.1,4.2-13.3c0.5-1.1,1.2-1.7,2.5-2
			c13.9-2.8,27.7-2.8,41.6,0c1.3,0.3,1.9,0.8,2.5,2c2.1,4.2,3.3,8.7,4.2,13.3c0.3,1.7,0.1,2.3-1.9,2.3
			C887.5,467.2,879,467.3,870.5,467.3z"/>
		<path class="st7" d="M1050.6,475.4c-6.3,0-10.9-0.1-15.6,0c-1.7,0-2.1-0.5-2-2.1c0.1-7.4,0-14.7,0-22.1c0-1.1-0.1-2,1.5-2
			c12.4,0.3,24.9-0.8,37.3,1.3c1.5,0.3,3,0.8,4.5,0.9c3.8,0.1,5.3,2.5,6,5.7c0.4,2,0.8,3.9,0.7,6c-0.3,7.3-1.9,9.1-9.1,10.5
			C1065.7,475.4,1057.4,475.6,1050.6,475.4z"/>
		<path class="st7" d="M1157,422.3c9.8,0,19.1,2.3,27.8,6.8c1.4,0.7,2.5,1.7,3.5,2.9c13.9,18.2,14,44.2,0,62.4
			c-0.9,1.2-2,2.2-3.5,2.9c-18.6,9.3-37.3,9.3-55.9,0c-1.4-0.7-2.5-1.7-3.4-2.9c-13.9-18.2-13.8-44.3,0.1-62.4
			c1-1.2,2.1-2.1,3.5-2.9C1137.7,424.6,1147,422.3,1157,422.3z"/>
		<path class="st7" d="M1224.3,462.4c0-6.1,0-12.2,0-18.4c0-1.2-0.2-2.2,1.7-2.1c12.9,0.4,25.8-0.6,38.7,0.7
			c6.7,0.7,13.1,2.4,19.5,4.7c1.2,0.4,1.9,1.2,2.4,2.3c4.4,8.5,4.4,17,0.1,25.5c-0.7,1.4-1.6,2.1-3.1,2.7
			c-9.4,3.4-19.2,5.1-29.2,5.1c-9.2,0-18.4-0.1-27.6,0.1c-2.3,0-2.6-0.7-2.6-2.7C1224.4,474.2,1224.3,468.3,1224.3,462.4z"/>
	</g>
</g>
<g>
</g>
<g>
</g>
<g>
</g>
<g>
</g>
<g>
</g>
<g>
</g>
<g>
</g>
<g>
</g>
<g>
</g>
<g>
</g>
<g>
</g>
<g>
</g>
<g>
</g>
<g>
</g>
<g>
</g>
</svg>
